<svg xmlns="http://www.w3.org/2000/svg" xmlns:xlink="http://www.w3.org/1999/xlink" zoomAndPan="magnify" preserveAspectRatio="xMidYMid meet" version="1.0" viewBox="43.82 31.86 289.63 301.21"><defs><clipPath id="4d00cb89c3"><path d="M 44 32 L 333 32 L 333 268.390625 L 44 268.390625 Z M 44 32 " clip-rule="nonzero"/></clipPath><clipPath id="8c1aee963f"><path d="M 69.992188 189.597656 L 94.054688 189.597656 L 94.054688 213.660156 L 69.992188 213.660156 Z M 69.992188 189.597656 " clip-rule="nonzero"/></clipPath><clipPath id="7014cb3a68"><path d="M 82.023438 189.597656 C 75.378906 189.597656 69.992188 194.984375 69.992188 201.628906 C 69.992188 208.273438 75.378906 213.660156 82.023438 213.660156 C 88.667969 213.660156 94.054688 208.273438 94.054688 201.628906 C 94.054688 194.984375 88.667969 189.597656 82.023438 189.597656 Z M 82.023438 189.597656 " clip-rule="nonzero"/></clipPath><clipPath id="da8009beab"><path d="M 113.179688 172.335938 L 137.242188 172.335938 L 137.242188 196.398438 L 113.179688 196.398438 Z M 113.179688 172.335938 " clip-rule="nonzero"/></clipPath><clipPath id="0cfa7d57eb"><path d="M 125.210938 172.335938 C 118.5625 172.335938 113.179688 177.71875 113.179688 184.367188 C 113.179688 191.011719 118.5625 196.398438 125.210938 196.398438 C 131.855469 196.398438 137.242188 191.011719 137.242188 184.367188 C 137.242188 177.71875 131.855469 172.335938 125.210938 172.335938 Z M 125.210938 172.335938 " clip-rule="nonzero"/></clipPath><clipPath id="42a68181ac"><path d="M 153.476562 126.773438 L 177.542969 126.773438 L 177.542969 150.835938 L 153.476562 150.835938 Z M 153.476562 126.773438 " clip-rule="nonzero"/></clipPath><clipPath id="a820681978"><path d="M 165.507812 126.773438 C 158.863281 126.773438 153.476562 132.160156 153.476562 138.804688 C 153.476562 145.449219 158.863281 150.835938 165.507812 150.835938 C 172.15625 150.835938 177.542969 145.449219 177.542969 138.804688 C 177.542969 132.160156 172.15625 126.773438 165.507812 126.773438 Z M 165.507812 126.773438 " clip-rule="nonzero"/></clipPath><clipPath id="1a4a84a7ff"><path d="M 197.242188 61.1875 L 221.304688 61.1875 L 221.304688 85.253906 L 197.242188 85.253906 Z M 197.242188 61.1875 " clip-rule="nonzero"/></clipPath><clipPath id="358baea9da"><path d="M 209.273438 61.1875 C 202.628906 61.1875 197.242188 66.574219 197.242188 73.222656 C 197.242188 79.867188 202.628906 85.253906 209.273438 85.253906 C 215.917969 85.253906 221.304688 79.867188 221.304688 73.222656 C 221.304688 66.574219 215.917969 61.1875 209.273438 61.1875 Z M 209.273438 61.1875 " clip-rule="nonzero"/></clipPath><clipPath id="c10c43e2ec"><path d="M 240.042969 103.414062 L 264.109375 103.414062 L 264.109375 127.476562 L 240.042969 127.476562 Z M 240.042969 103.414062 " clip-rule="nonzero"/></clipPath><clipPath id="aba5fa8226"><path d="M 252.078125 103.414062 C 245.429688 103.414062 240.042969 108.800781 240.042969 115.445312 C 240.042969 122.089844 245.429688 127.476562 252.078125 127.476562 C 258.722656 127.476562 264.109375 122.089844 264.109375 115.445312 C 264.109375 108.800781 258.722656 103.414062 252.078125 103.414062 Z M 252.078125 103.414062 " clip-rule="nonzero"/></clipPath><clipPath id="4f5094d428"><path d="M 283.039062 31.863281 L 307.101562 31.863281 L 307.101562 55.925781 L 283.039062 55.925781 Z M 283.039062 31.863281 " clip-rule="nonzero"/></clipPath><clipPath id="8f1e27d69d"><path d="M 295.070312 31.863281 C 288.425781 31.863281 283.039062 37.25 283.039062 43.894531 C 283.039062 50.539062 288.425781 55.925781 295.070312 55.925781 C 301.714844 55.925781 307.101562 50.539062 307.101562 43.894531 C 307.101562 37.25 301.714844 31.863281 295.070312 31.863281 Z M 295.070312 31.863281 " clip-rule="nonzero"/></clipPath><clipPath id="bab9227ef9"><path d="M 43.816406 157.257812 L 56.960938 157.257812 L 56.960938 268.765625 L 43.816406 268.765625 Z M 43.816406 157.257812 " clip-rule="nonzero"/></clipPath><clipPath id="70cefcc2a9"><path d="M 320.304688 157.257812 L 333.445312 157.257812 L 333.445312 268.765625 L 320.304688 268.765625 Z M 320.304688 157.257812 " clip-rule="nonzero"/></clipPath></defs><g clip-path="url(#4d00cb89c3)"><path fill="#325679" d="M 291.882812 32.199219 C 290.332031 32.527344 288.644531 33.378906 287.167969 34.582031 C 284.625 36.660156 282.996094 40.03125 282.988281 43.222656 C 282.984375 45.550781 283.644531 47.789062 284.886719 49.683594 C 286.398438 51.984375 289.285156 54.175781 291.679688 54.839844 C 292.632812 55.101562 295.019531 55.398438 295.355469 55.292969 C 295.472656 55.253906 296 55.164062 296.519531 55.09375 C 297.753906 54.921875 298.503906 54.679688 299.746094 54.050781 C 303.113281 52.339844 305.472656 49.675781 306.398438 46.539062 C 306.757812 45.3125 306.839844 43.417969 306.59375 42.003906 C 306.128906 39.339844 305.445312 37.996094 303.542969 36.015625 C 301.960938 34.363281 300.277344 33.285156 298.164062 32.5625 C 297.007812 32.167969 296.878906 32.152344 294.6875 32.121094 C 293.433594 32.105469 292.171875 32.140625 291.882812 32.199219 M 285.097656 52.488281 C 284.910156 52.660156 284.757812 52.851562 284.757812 52.910156 C 284.757812 53.050781 285.132812 53.605469 285.347656 53.777344 C 285.664062 54.039062 286.164062 53.828125 286.363281 53.347656 C 286.535156 52.9375 286.527344 52.878906 286.304688 52.574219 C 285.972656 52.128906 285.523438 52.097656 285.097656 52.488281 M 283.953125 55.28125 C 284.007812 55.425781 283.929688 55.472656 283.632812 55.472656 C 283.261719 55.472656 283.242188 55.5 283.242188 55.953125 C 283.242188 56.519531 283.417969 56.738281 283.886719 56.738281 C 284.398438 56.738281 284.621094 56.617188 284.804688 56.246094 C 285.011719 55.820312 284.933594 55.472656 284.621094 55.472656 C 284.488281 55.472656 284.378906 55.386719 284.378906 55.28125 C 284.378906 55.179688 284.265625 55.09375 284.128906 55.09375 C 283.960938 55.09375 283.902344 55.152344 283.953125 55.28125 M 282.074219 58.261719 C 281.785156 58.433594 281.570312 59.230469 281.734375 59.539062 C 281.804688 59.671875 281.996094 59.773438 282.175781 59.773438 C 282.359375 59.773438 282.460938 59.828125 282.417969 59.898438 C 282.242188 60.183594 282.617188 60 282.808594 59.710938 C 282.921875 59.535156 283.09375 59.394531 283.191406 59.394531 C 283.433594 59.394531 283.410156 59.0625 283.144531 58.769531 C 283.015625 58.625 282.886719 58.476562 282.761719 58.328125 C 282.574219 58.101562 282.386719 58.082031 282.074219 58.261719 M 280.226562 61.457031 C 279.382812 62.355469 280.59375 63.332031 281.488281 62.476562 L 281.835938 62.140625 L 281.441406 61.652344 C 280.988281 61.085938 280.628906 61.027344 280.226562 61.457031 M 206.589844 62.175781 C 205.105469 62.410156 203.019531 63.394531 201.667969 64.488281 C 200.375 65.539062 199.453125 66.730469 198.625 68.4375 C 197.589844 70.550781 197.4375 71.195312 197.441406 73.429688 C 197.445312 75.066406 197.484375 75.390625 197.789062 76.394531 C 198.195312 77.71875 199.097656 79.523438 199.792969 80.402344 C 200.191406 80.910156 200.257812 81.066406 200.152344 81.265625 C 199.96875 81.605469 199.996094 82.050781 200.214844 82.339844 C 200.417969 82.609375 201.207031 82.667969 201.441406 82.433594 C 201.53125 82.34375 201.832031 82.503906 202.394531 82.933594 C 203.324219 83.648438 204.992188 84.535156 205.839844 84.773438 C 206.152344 84.859375 207.015625 85.019531 207.757812 85.132812 C 209.007812 85.320312 209.222656 85.320312 210.542969 85.128906 C 211.328125 85.015625 212.261719 84.839844 212.613281 84.738281 C 213.449219 84.5 215.023438 83.691406 216.058594 82.964844 C 216.871094 82.398438 216.890625 82.394531 217.085938 82.640625 C 217.453125 83.101562 218.375 83.136719 218.542969 82.695312 C 218.636719 82.457031 218.398438 81.667969 218.144531 81.378906 C 217.984375 81.195312 217.984375 81.15625 218.144531 81.0625 C 218.550781 80.828125 219.6875 79.253906 220.136719 78.300781 C 221.453125 75.53125 221.539062 72.847656 220.417969 69.699219 C 219.554688 67.285156 217.085938 64.699219 214.375 63.375 C 212.125 62.273438 211.652344 62.15625 209.316406 62.105469 C 208.203125 62.082031 206.976562 62.113281 206.589844 62.175781 M 278.515625 64.507812 C 278.328125 64.652344 278.296875 64.785156 278.363281 65.140625 C 278.570312 66.242188 279.894531 66 279.800781 64.875 C 279.765625 64.40625 279.746094 64.386719 279.257812 64.359375 C 278.964844 64.339844 278.652344 64.402344 278.515625 64.507812 M 281.84375 65.773438 C 281.765625 65.847656 281.722656 114.160156 281.722656 196.578125 L 281.722656 327.265625 L 282.894531 327.265625 C 303.128906 327.292969 307.679688 327.324219 310.433594 327.453125 C 312.207031 327.535156 317.882812 327.613281 323.050781 327.625 C 331.914062 327.644531 332.449219 327.632812 332.535156 327.421875 C 332.585938 327.300781 332.617188 324.183594 332.601562 320.496094 C 332.542969 305.367188 332.453125 247.785156 332.414062 204.046875 L 332.375 157.410156 L 320.171875 157.410156 L 320.171875 236.441406 C 320.171875 312.730469 320.164062 315.472656 319.941406 315.53125 C 319.8125 315.566406 317.726562 315.542969 315.296875 315.476562 C 312.101562 315.394531 310.855469 315.320312 310.78125 315.210938 C 310.726562 315.128906 310.6875 259.113281 310.691406 190.734375 C 310.695312 122.359375 310.695312 66.21875 310.691406 65.984375 L 310.683594 65.558594 L 296.324219 65.605469 C 287.488281 65.636719 281.917969 65.699219 281.84375 65.773438 M 277.167969 67.398438 C 276.761719 67.601562 276.667969 68.28125 277 68.648438 C 277.175781 68.84375 277.332031 68.886719 277.664062 68.832031 C 278.171875 68.75 278.304688 68.585938 278.304688 68.03125 C 278.308594 67.757812 278.21875 67.566406 278.027344 67.429688 C 277.6875 67.195312 277.582031 67.191406 277.167969 67.398438 M 275.425781 70.492188 C 275.042969 70.820312 274.964844 71.226562 275.246094 71.429688 C 275.375 71.523438 275.515625 71.699219 275.5625 71.820312 C 275.671875 72.117188 276.039062 72.101562 276.121094 71.792969 C 276.15625 71.660156 276.304688 71.53125 276.453125 71.511719 C 276.816406 71.457031 276.847656 71.179688 276.539062 70.679688 C 276.25 70.210938 275.832031 70.140625 275.425781 70.492188 M 273.910156 73.273438 C 273.820312 73.304688 273.660156 73.5 273.554688 73.707031 C 273.382812 74.035156 273.382812 74.113281 273.535156 74.296875 C 273.636719 74.410156 273.75 74.605469 273.796875 74.726562 C 273.90625 75.039062 274.449219 75.007812 274.761719 74.671875 C 275.035156 74.378906 275.117188 73.632812 274.890625 73.492188 C 274.652344 73.347656 274.074219 73.214844 273.910156 73.273438 M 272.207031 76.480469 C 271.964844 76.660156 271.859375 76.855469 271.859375 77.109375 C 271.859375 77.3125 271.917969 77.480469 271.988281 77.480469 C 272.058594 77.480469 272.171875 77.621094 272.238281 77.792969 C 272.355469 78.109375 272.617188 78.234375 272.617188 77.976562 C 272.617188 77.90625 272.789062 77.785156 272.996094 77.710938 C 273.328125 77.597656 273.375 77.519531 273.375 77.105469 C 273.375 76.617188 273.082031 76.210938 272.734375 76.21875 C 272.632812 76.21875 272.398438 76.339844 272.207031 76.480469 M 270.390625 79.570312 C 270.230469 79.8125 270.207031 79.984375 270.292969 80.289062 C 270.433594 80.777344 270.886719 80.933594 271.460938 80.695312 C 271.796875 80.550781 271.859375 80.457031 271.859375 80.097656 C 271.859375 79.566406 271.535156 79.25 270.996094 79.25 C 270.710938 79.25 270.539062 79.339844 270.390625 79.570312 M 269.027344 82.394531 C 268.910156 82.523438 268.761719 82.820312 268.691406 83.054688 C 268.542969 83.570312 268.6875 83.746094 269.359375 83.871094 C 269.785156 83.949219 269.839844 83.925781 269.957031 83.625 C 270.023438 83.445312 270.140625 83.296875 270.210938 83.296875 C 270.40625 83.296875 270.367188 83.070312 270.117188 82.800781 C 269.988281 82.65625 269.859375 82.507812 269.734375 82.355469 C 269.519531 82.09375 269.289062 82.105469 269.027344 82.394531 M 198.535156 84.128906 C 197.976562 84.566406 197.953125 85.183594 198.484375 85.417969 C 198.78125 85.550781 198.921875 85.542969 199.304688 85.382812 C 199.726562 85.207031 199.769531 85.144531 199.769531 84.699219 C 199.769531 84.320312 199.699219 84.164062 199.457031 84.007812 C 199.050781 83.742188 199.019531 83.746094 198.535156 84.128906 M 219.753906 84.070312 C 219.386719 84.21875 219.25 84.402344 219.246094 84.761719 C 219.246094 85.027344 219.652344 85.480469 220.003906 85.601562 C 220.3125 85.707031 220.761719 85.476562 220.761719 85.210938 C 220.761719 85.078125 220.847656 84.933594 220.953125 84.894531 C 221.195312 84.800781 221.199219 84.5625 220.953125 84.5625 C 220.851562 84.5625 220.730469 84.417969 220.6875 84.246094 C 220.601562 83.902344 220.3125 83.847656 219.753906 84.070312 M 267.234375 85.503906 C 266.894531 85.84375 266.863281 86.023438 267.050781 86.519531 C 267.167969 86.824219 267.230469 86.847656 267.777344 86.8125 C 268.359375 86.777344 268.382812 86.757812 268.449219 86.332031 C 268.605469 85.363281 267.875 84.863281 267.234375 85.503906 M 221.785156 86.792969 C 221.464844 87.195312 221.464844 87.222656 221.742188 87.710938 C 221.980469 88.125 222.308594 88.332031 222.382812 88.109375 C 222.40625 88.035156 222.585938 87.976562 222.78125 87.976562 C 223.382812 87.976562 223.5 87.148438 222.957031 86.71875 C 222.507812 86.363281 222.097656 86.390625 221.785156 86.792969 M 196.667969 86.921875 C 195.921875 87.664062 196.355469 88.515625 197.367188 88.292969 C 197.785156 88.199219 197.800781 88.183594 197.917969 87.6875 C 197.984375 87.414062 197.933594 87.269531 197.691406 87.023438 C 197.324219 86.660156 196.964844 86.625 196.667969 86.921875 M 265.554688 88.523438 C 265.226562 88.871094 265.21875 89.003906 265.480469 89.511719 C 265.664062 89.867188 265.71875 89.890625 266.144531 89.8125 C 266.398438 89.761719 266.679688 89.664062 266.765625 89.59375 C 267.023438 89.382812 266.953125 88.804688 266.632812 88.503906 C 266.253906 88.148438 265.902344 88.15625 265.554688 88.523438 M 224.175781 89.242188 C 223.886719 89.53125 223.859375 89.808594 224.082031 90.300781 C 224.226562 90.617188 224.289062 90.644531 224.730469 90.589844 C 225.308594 90.515625 225.386719 90.445312 225.5 89.914062 C 225.660156 89.148438 224.738281 88.679688 224.175781 89.242188 M 194.660156 90.050781 C 194.371094 90.585938 194.464844 90.890625 195.003906 91.179688 L 195.429688 91.410156 L 195.835938 91.003906 C 196.328125 90.511719 196.289062 90.105469 195.726562 89.8125 C 195.160156 89.519531 194.917969 89.574219 194.660156 90.050781 M 264.1875 91.324219 C 264.042969 91.425781 263.851562 91.6875 263.757812 91.910156 C 263.613281 92.261719 263.617188 92.328125 263.804688 92.464844 C 263.921875 92.550781 264.015625 92.683594 264.015625 92.765625 C 264.015625 92.84375 264.210938 92.910156 264.449219 92.910156 C 264.785156 92.910156 264.945312 92.824219 265.144531 92.542969 C 265.507812 92.035156 265.476562 91.835938 264.984375 91.460938 C 264.488281 91.082031 264.523438 91.085938 264.1875 91.324219 M 226.515625 91.675781 C 226.195312 91.953125 226.183594 91.996094 226.320312 92.496094 C 226.527344 93.265625 226.585938 93.277344 227.59375 92.785156 C 227.875 92.648438 227.898438 91.984375 227.628906 91.746094 C 227.214844 91.382812 226.882812 91.359375 226.515625 91.675781 M 193.039062 92.75 C 192.75 93.089844 192.679688 93.386719 192.8125 93.730469 C 192.910156 93.992188 193.015625 94.046875 193.414062 94.046875 C 193.953125 94.046875 194.457031 93.757812 194.457031 93.445312 C 194.457031 93.140625 193.820312 92.527344 193.503906 92.527344 C 193.351562 92.527344 193.144531 92.628906 193.039062 92.75 M 228.855469 94.171875 C 228.519531 94.511719 228.515625 95.253906 228.847656 95.433594 C 229.265625 95.65625 229.96875 95.59375 230.117188 95.320312 C 230.328125 94.925781 230.273438 94.683594 229.878906 94.289062 C 229.445312 93.855469 229.203125 93.828125 228.855469 94.171875 M 262.253906 94.539062 C 262.109375 94.742188 261.992188 94.976562 261.992188 95.058594 C 261.992188 95.347656 262.519531 95.945312 262.773438 95.945312 C 262.914062 95.945312 263.195312 95.824219 263.394531 95.683594 C 263.914062 95.3125 263.890625 94.832031 263.34375 94.457031 C 262.792969 94.082031 262.570312 94.097656 262.253906 94.539062 M 191.195312 95.636719 C 190.636719 96.027344 190.902344 97.082031 191.558594 97.082031 C 192.199219 97.082031 192.433594 96.882812 192.433594 96.332031 C 192.433594 95.902344 192.382812 95.820312 192.003906 95.640625 C 191.480469 95.394531 191.539062 95.394531 191.195312 95.636719 M 231.296875 96.601562 C 230.996094 96.746094 230.8125 97.308594 230.941406 97.703125 C 230.984375 97.84375 231.222656 98.019531 231.476562 98.101562 C 231.898438 98.242188 231.957031 98.230469 232.167969 97.96875 C 232.585938 97.453125 232.601562 97.074219 232.21875 96.746094 C 231.84375 96.421875 231.714844 96.402344 231.296875 96.601562 M 260.824219 97.34375 C 260.703125 97.414062 260.546875 97.582031 260.472656 97.71875 C 260.304688 98.03125 260.59375 98.632812 261.050781 98.933594 C 261.359375 99.136719 261.378906 99.128906 261.746094 98.722656 C 261.949219 98.488281 262.121094 98.25 262.121094 98.191406 C 262.121094 97.90625 261.71875 97.359375 261.460938 97.289062 C 261.09375 97.191406 261.085938 97.191406 260.824219 97.34375 M 189.300781 98.59375 C 188.863281 98.957031 189.011719 99.738281 189.519531 99.738281 C 189.652344 99.738281 189.792969 99.789062 189.832031 99.851562 C 189.875 99.917969 190.035156 99.90625 190.21875 99.820312 C 190.488281 99.695312 190.535156 99.589844 190.535156 99.089844 C 190.535156 98.585938 190.492188 98.492188 190.25 98.425781 C 189.796875 98.304688 189.605469 98.339844 189.300781 98.59375 M 233.507812 99.199219 C 233.121094 99.648438 233.101562 100.496094 233.480469 100.496094 C 233.574219 100.496094 233.710938 100.597656 233.78125 100.71875 C 233.886719 100.894531 233.933594 100.90625 234.023438 100.769531 C 234.085938 100.675781 234.269531 100.53125 234.4375 100.449219 C 234.640625 100.347656 234.75 100.171875 234.777344 99.902344 C 234.847656 99.164062 233.964844 98.675781 233.507812 99.199219 M 259.210938 100.40625 C 258.773438 100.625 258.722656 101.246094 259.101562 101.757812 C 259.425781 102.195312 259.664062 102.246094 259.777344 101.902344 C 259.816406 101.769531 259.992188 101.625 260.164062 101.582031 C 260.40625 101.519531 260.476562 101.421875 260.476562 101.125 C 260.476562 100.707031 260.089844 100.242188 259.746094 100.246094 C 259.625 100.246094 259.382812 100.320312 259.210938 100.40625 M 187.394531 101.546875 C 187.125 101.839844 187.03125 102.140625 187.214844 102.140625 C 187.265625 102.140625 187.410156 102.316406 187.53125 102.53125 C 187.820312 103.039062 188.203125 102.984375 188.550781 102.375 C 188.777344 101.988281 188.796875 101.867188 188.667969 101.585938 C 188.464844 101.144531 187.792969 101.125 187.394531 101.546875 M 235.9375 101.671875 C 235.492188 101.894531 235.425781 102.691406 235.824219 103.035156 C 236.195312 103.355469 236.46875 103.34375 236.800781 102.988281 C 237.125 102.640625 237.15625 102.183594 236.878906 101.789062 C 236.660156 101.472656 236.398438 101.441406 235.9375 101.671875 M 257.4375 103.5 C 257.238281 103.75 257.1875 103.945312 257.242188 104.226562 C 257.390625 104.980469 258.066406 105.144531 258.621094 104.5625 L 258.96875 104.203125 L 258.625 103.679688 C 258.210938 103.050781 257.835938 102.992188 257.4375 103.5 M 249.15625 103.835938 C 246.398438 104.375 243.699219 106.21875 242.050781 108.683594 C 241.453125 109.585938 240.585938 111.515625 240.304688 112.574219 C 239.683594 114.945312 240.117188 117.800781 241.503906 120.464844 C 242.441406 122.269531 244.238281 124.09375 246.214844 125.25 C 246.753906 125.566406 247.195312 125.882812 247.195312 125.949219 C 247.195312 126.015625 247.28125 126.039062 247.386719 125.996094 C 247.496094 125.957031 247.695312 126.039062 247.835938 126.179688 C 247.976562 126.320312 248.144531 126.398438 248.210938 126.359375 C 248.273438 126.320312 248.628906 126.375 248.996094 126.488281 C 250.507812 126.945312 253.929688 126.839844 255.566406 126.289062 C 256.417969 126.003906 258.035156 125.113281 259.019531 124.394531 C 262.417969 121.902344 264.320312 118.0625 263.886719 114.5625 C 263.492188 111.386719 262.457031 109.269531 260.308594 107.25 C 258.660156 105.695312 257.355469 104.914062 255.175781 104.167969 C 254.074219 103.789062 253.835938 103.757812 252.011719 103.710938 C 250.675781 103.679688 249.757812 103.71875 249.15625 103.835938 M 185.820312 104.195312 C 185.574219 104.382812 185.371094 105.429688 185.582031 105.429688 C 185.65625 105.429688 185.839844 105.558594 185.984375 105.714844 L 186.253906 106 L 186.507812 105.652344 C 186.648438 105.460938 186.84375 105.304688 186.941406 105.304688 C 187.402344 105.304688 186.839844 104.269531 186.292969 104.113281 C 186.148438 104.070312 185.9375 104.109375 185.820312 104.195312 M 238.117188 104.234375 C 237.707031 104.523438 237.726562 105.210938 238.152344 105.40625 C 238.328125 105.484375 238.46875 105.609375 238.46875 105.679688 C 238.46875 105.902344 238.691406 105.820312 239.101562 105.449219 C 239.433594 105.144531 239.480469 105.03125 239.402344 104.722656 C 239.242188 104.070312 238.664062 103.851562 238.117188 104.234375 M 194.300781 105.175781 L 193.824219 105.238281 L 193.753906 216.15625 C 193.710938 277.160156 193.714844 327.457031 193.765625 327.929688 L 193.847656 328.78125 L 227.910156 328.71875 L 227.910156 105.175781 L 225.632812 105.171875 C 205.65625 105.125 194.683594 105.125 194.300781 105.175781 M 240.4375 106.765625 C 240.167969 107.035156 240.046875 107.574219 240.203125 107.820312 C 240.269531 107.929688 240.539062 108.074219 240.800781 108.140625 C 241.226562 108.25 241.300781 108.230469 241.511719 107.953125 C 241.820312 107.550781 241.816406 107.3125 241.496094 106.902344 C 241.199219 106.523438 240.738281 106.464844 240.4375 106.765625 M 183.960938 107.195312 C 183.382812 107.777344 183.59375 108.589844 184.328125 108.589844 C 185.210938 108.589844 185.578125 107.589844 184.855469 107.164062 C 184.386719 106.886719 184.265625 106.890625 183.960938 107.195312 M 181.886719 110.175781 C 181.59375 110.46875 181.632812 110.90625 181.992188 111.292969 C 182.339844 111.667969 182.507812 111.707031 182.65625 111.449219 C 182.710938 111.355469 182.871094 111.253906 183.011719 111.226562 C 183.21875 111.1875 183.261719 111.082031 183.261719 110.613281 L 183.261719 110.046875 L 182.675781 110.007812 C 182.265625 109.980469 182.03125 110.03125 181.886719 110.175781 M 180.070312 113.097656 C 179.914062 113.269531 179.785156 113.511719 179.785156 113.640625 C 179.785156 114.082031 180.710938 114.453125 181.136719 114.183594 C 181.21875 114.128906 181.347656 113.921875 181.425781 113.722656 C 181.542969 113.410156 181.523438 113.316406 181.285156 113.0625 C 180.929688 112.683594 180.441406 112.699219 180.070312 113.097656 M 178.242188 116.078125 C 177.917969 116.507812 177.902344 116.8125 178.207031 116.8125 C 178.300781 116.8125 178.394531 116.941406 178.417969 117.09375 C 178.476562 117.511719 178.859375 117.515625 179.273438 117.105469 C 179.589844 116.792969 179.625 116.6875 179.550781 116.242188 C 179.472656 115.773438 179.433594 115.734375 179.011719 115.699219 C 178.628906 115.667969 178.511719 115.722656 178.242188 116.078125 M 176.5 118.894531 C 176.257812 119.285156 176.246094 119.375 176.394531 119.6875 C 176.523438 119.957031 176.664062 120.046875 177.015625 120.074219 C 177.753906 120.136719 178.042969 119.472656 177.585938 118.773438 C 177.277344 118.304688 176.832031 118.355469 176.5 118.894531 M 174.605469 121.734375 C 174.265625 122.367188 174.550781 123.007812 175.164062 123.007812 C 175.878906 123.007812 175.992188 122.914062 175.992188 122.304688 C 175.992188 121.890625 175.929688 121.722656 175.746094 121.621094 C 175.339844 121.40625 174.75 121.464844 174.605469 121.734375 M 172.988281 124.511719 C 172.527344 124.742188 172.429688 125.246094 172.773438 125.59375 C 173.054688 125.871094 173.746094 125.894531 174.0625 125.636719 C 174.234375 125.496094 174.273438 124.925781 174.125 124.703125 C 174.03125 124.566406 173.515625 124.257812 173.4375 124.289062 C 173.417969 124.300781 173.214844 124.398438 172.988281 124.511719 M 163.023438 127.0625 C 160.113281 127.441406 156.882812 129.644531 155.308594 132.320312 C 154.082031 134.402344 153.585938 136.058594 153.566406 138.121094 C 153.542969 140.875 154.394531 143.332031 156.164062 145.585938 C 156.601562 146.140625 157.015625 146.765625 157.082031 146.96875 C 157.175781 147.242188 157.324219 147.371094 157.652344 147.453125 C 157.894531 147.515625 158.464844 147.8125 158.917969 148.109375 C 161.246094 149.644531 162.601562 150.003906 165.871094 149.957031 C 167.832031 149.929688 168.859375 149.722656 170.058594 149.121094 C 173.734375 147.277344 175.9375 144.847656 176.960938 141.511719 C 177.265625 140.527344 177.300781 140.203125 177.292969 138.691406 C 177.285156 136.648438 176.925781 135.074219 176.117188 133.523438 C 175.371094 132.089844 173.296875 129.847656 172.179688 129.261719 L 171.847656 129.089844 L 172.132812 128.503906 C 172.363281 128.023438 172.386719 127.859375 172.273438 127.609375 C 171.976562 126.953125 170.953125 127.101562 170.769531 127.824219 C 170.707031 128.0625 170.640625 128.273438 170.621094 128.292969 C 170.605469 128.3125 170.253906 128.160156 169.84375 127.957031 C 169.433594 127.757812 168.8125 127.496094 168.464844 127.378906 C 167.261719 126.972656 164.800781 126.828125 163.023438 127.0625 M 236.515625 138.46875 C 236.488281 138.558594 236.476562 181.226562 236.488281 233.292969 L 236.507812 327.960938 L 249.726562 328 C 256.992188 328.019531 264.664062 328 266.765625 327.953125 L 270.59375 327.867188 L 270.59375 138.3125 L 253.578125 138.3125 C 240.078125 138.3125 236.554688 138.34375 236.515625 138.46875 M 155.175781 148.847656 C 154.835938 149.140625 154.835938 149.140625 155.054688 149.605469 C 155.394531 150.316406 155.972656 150.382812 156.421875 149.757812 C 156.628906 149.476562 156.632812 149.414062 156.460938 149.082031 C 156.148438 148.480469 155.699219 148.398438 155.175781 148.847656 M 152.972656 151.464844 C 152.695312 151.746094 152.648438 152.109375 152.851562 152.484375 C 152.945312 152.660156 153.113281 152.730469 153.453125 152.730469 C 154.039062 152.726562 154.195312 152.628906 154.304688 152.191406 C 154.503906 151.394531 153.558594 150.878906 152.972656 151.464844 M 150.855469 154.089844 C 150.542969 154.246094 150.441406 154.375 150.441406 154.636719 C 150.441406 154.847656 150.527344 155.003906 150.664062 155.050781 C 150.785156 155.09375 150.984375 155.195312 151.101562 155.28125 C 151.253906 155.394531 151.414062 155.40625 151.667969 155.316406 C 151.980469 155.207031 152.027344 155.117188 152.0625 154.609375 C 152.09375 154.09375 152.066406 154.019531 151.808594 153.949219 C 151.410156 153.84375 151.324219 153.855469 150.855469 154.089844 M 149.050781 156.371094 C 149.050781 156.425781 148.882812 156.570312 148.671875 156.695312 C 148.21875 156.960938 148.203125 157.144531 148.578125 157.726562 C 148.875 158.1875 149.097656 158.277344 149.265625 158.011719 C 149.324219 157.925781 149.539062 157.757812 149.746094 157.640625 C 150.210938 157.378906 150.277344 157.210938 149.941406 157.121094 C 149.789062 157.082031 149.683594 156.949219 149.683594 156.792969 C 149.683594 156.652344 149.574219 156.476562 149.441406 156.402344 C 149.148438 156.246094 149.050781 156.238281 149.050781 156.371094 M 44.523438 157.566406 C 44.492188 157.65625 44.445312 193.554688 44.414062 237.339844 C 44.386719 281.128906 44.324219 319.28125 44.273438 322.121094 C 44.222656 324.960938 44.21875 327.421875 44.261719 327.59375 L 44.339844 327.902344 L 67.636719 327.867188 C 80.453125 327.847656 92.628906 327.816406 94.699219 327.796875 L 98.460938 327.761719 L 98.460938 221.144531 L 82.726562 221.179688 C 74.074219 221.199219 66.96875 221.246094 66.945312 221.277344 C 66.917969 221.3125 66.949219 240.890625 67.011719 264.785156 C 67.074219 288.679688 67.082031 309.839844 67.03125 311.804688 C 66.945312 315.277344 66.933594 315.386719 66.671875 315.527344 C 66.3125 315.71875 57.027344 315.980469 56.851562 315.800781 C 56.765625 315.71875 56.726562 288.835938 56.726562 236.542969 L 56.726562 157.410156 L 50.652344 157.410156 C 45.90625 157.410156 44.566406 157.445312 44.523438 157.566406 M 146.363281 159.230469 C 146.140625 159.398438 146.066406 160.019531 146.238281 160.253906 C 146.289062 160.324219 146.457031 160.453125 146.609375 160.539062 C 146.851562 160.671875 146.960938 160.644531 147.402344 160.355469 C 148.011719 159.957031 148.042969 159.703125 147.539062 159.332031 C 147.117188 159.019531 146.691406 158.980469 146.363281 159.230469 M 151.140625 159.558594 L 150.378906 159.625 L 150.378906 328.53125 L 167.390625 328.496094 L 184.402344 328.464844 L 184.339844 159.496094 L 168.121094 159.492188 C 159.199219 159.492188 151.554688 159.519531 151.140625 159.558594 M 144.203125 161.816406 C 143.894531 162.152344 143.933594 162.824219 144.277344 163.101562 C 144.550781 163.320312 144.574219 163.320312 145.035156 163.085938 C 145.410156 162.894531 145.511719 162.769531 145.511719 162.496094 C 145.511719 161.707031 144.6875 161.277344 144.203125 161.816406 M 142.097656 164.40625 C 141.820312 164.550781 141.785156 164.640625 141.816406 165.125 C 141.835938 165.433594 141.867188 165.691406 141.878906 165.703125 C 141.894531 165.714844 142.164062 165.753906 142.480469 165.796875 C 143.03125 165.867188 143.0625 165.855469 143.203125 165.488281 C 143.375 165.03125 143.234375 164.570312 142.871094 164.375 C 142.550781 164.203125 142.484375 164.207031 142.097656 164.40625 M 139.890625 166.992188 C 139.839844 167.042969 139.714844 167.285156 139.613281 167.527344 C 139.433594 167.953125 139.4375 167.980469 139.757812 168.253906 C 140.191406 168.632812 140.460938 168.613281 140.871094 168.183594 C 141.261719 167.777344 141.289062 167.570312 141.015625 167.175781 C 140.816406 166.894531 140.105469 166.777344 139.890625 166.992188 M 137.535156 169.8125 C 137.222656 170.125 137.296875 170.5 137.75 170.910156 C 138.148438 171.273438 138.335938 171.269531 138.753906 170.882812 C 139.007812 170.644531 139.070312 170.496094 139.011719 170.257812 C 138.835938 169.550781 138.039062 169.308594 137.535156 169.8125 M 135.621094 172.273438 C 135.195312 172.507812 135.074219 172.878906 135.269531 173.355469 C 135.394531 173.652344 135.5 173.726562 135.824219 173.726562 C 136.707031 173.726562 137.097656 172.925781 136.492188 172.355469 C 136.148438 172.035156 136.078125 172.027344 135.621094 172.273438 M 122.75 173.105469 C 120.914062 173.386719 119.207031 174.160156 117.632812 175.421875 C 116.082031 176.667969 115.132812 177.964844 114.238281 180.050781 C 113.488281 181.796875 113.324219 182.574219 113.328125 184.285156 C 113.339844 186.246094 113.644531 187.4375 114.667969 189.511719 C 115.367188 190.929688 115.546875 191.183594 116.65625 192.304688 C 118.578125 194.25 120.152344 195.203125 122.410156 195.785156 C 124.144531 196.230469 124.898438 196.28125 126.453125 196.050781 C 128.828125 195.695312 129.933594 195.261719 131.910156 193.914062 C 134.636719 192.050781 136.394531 189.523438 136.980469 186.628906 C 137.257812 185.257812 137.171875 183.066406 136.789062 181.714844 C 136.25 179.816406 135.566406 178.628906 134.144531 177.09375 C 133.683594 176.597656 133.40625 176.269531 133.53125 176.367188 C 133.722656 176.515625 133.785156 176.515625 133.972656 176.355469 C 134.09375 176.25 134.296875 176.128906 134.429688 176.082031 C 134.621094 176.011719 134.652344 175.914062 134.59375 175.546875 C 134.5 174.964844 134.304688 174.738281 133.898438 174.738281 C 133.519531 174.738281 132.863281 175.3125 132.863281 175.644531 C 132.863281 175.828125 132.734375 175.769531 132.199219 175.359375 C 131.285156 174.65625 129.210938 173.664062 127.992188 173.347656 C 126.804688 173.035156 124.027344 172.910156 122.75 173.105469 M 111.84375 186.484375 L 111.433594 186.851562 L 111.683594 187.316406 C 111.988281 187.894531 112.082031 187.953125 112.328125 187.75 C 112.480469 187.625 112.539062 187.625 112.617188 187.746094 C 112.722656 187.921875 112.855469 187.800781 113.121094 187.289062 C 113.355469 186.835938 112.894531 186.121094 112.367188 186.121094 C 112.304688 186.121094 112.066406 186.285156 111.84375 186.484375 M 108.925781 187.859375 C 108.449219 188.15625 108.398438 188.414062 108.714844 188.949219 C 109.019531 189.464844 109.007812 189.457031 109.355469 189.273438 C 109.535156 189.175781 109.65625 189.175781 109.773438 189.273438 C 109.902344 189.382812 109.96875 189.304688 110.066406 188.921875 C 110.195312 188.402344 110.101562 188.089844 109.726562 187.800781 C 109.464844 187.59375 109.339844 187.605469 108.925781 187.859375 M 105.808594 189.480469 C 105.398438 189.828125 105.296875 190.253906 105.597656 190.371094 C 105.695312 190.40625 105.808594 190.574219 105.851562 190.746094 C 105.941406 191.097656 106.113281 191.144531 106.226562 190.847656 C 106.28125 190.707031 106.398438 190.667969 106.605469 190.722656 C 106.84375 190.78125 106.921875 190.738281 106.984375 190.511719 C 107.121094 189.996094 107.066406 189.707031 106.769531 189.429688 C 106.394531 189.078125 106.28125 189.082031 105.808594 189.480469 M 79.726562 189.660156 C 75.351562 190.355469 71.632812 194.03125 70.5625 198.71875 C 69.867188 201.757812 70.914062 205.726562 73.070312 208.253906 C 74.4375 209.851562 75.464844 210.65625 77.40625 211.632812 C 78.980469 212.429688 79.863281 212.613281 82.085938 212.605469 C 85.007812 212.59375 86.363281 212.1875 88.746094 210.613281 C 90.207031 209.648438 91.082031 208.828125 92.058594 207.515625 C 93.53125 205.539062 94.09375 203.859375 94.097656 201.421875 C 94.101562 197.84375 92.96875 195.3125 90.238281 192.78125 C 88.863281 191.507812 86.796875 190.386719 84.832031 189.847656 C 83.972656 189.609375 80.777344 189.492188 79.726562 189.660156 M 102.792969 190.941406 C 102.351562 191.222656 102.226562 191.757812 102.574219 191.890625 C 102.675781 191.929688 102.761719 192.070312 102.761719 192.195312 C 102.761719 192.535156 103.007812 192.628906 103.199219 192.367188 C 103.339844 192.171875 103.398438 192.164062 103.570312 192.304688 C 103.742188 192.449219 103.789062 192.425781 103.898438 192.132812 C 104.097656 191.605469 104.054688 191.320312 103.71875 190.984375 C 103.34375 190.609375 103.3125 190.605469 102.792969 190.941406 M 99.757812 192.457031 C 99.308594 192.746094 99.210938 193.183594 99.539062 193.453125 C 99.640625 193.542969 99.726562 193.6875 99.726562 193.777344 C 99.726562 194.050781 100.003906 194.140625 100.132812 193.910156 C 100.207031 193.777344 100.339844 193.722656 100.488281 193.773438 C 100.972656 193.925781 101.082031 192.921875 100.640625 192.410156 C 100.394531 192.128906 100.261719 192.136719 99.757812 192.457031 M 96.660156 193.976562 C 96.242188 194.285156 96.222656 194.554688 96.578125 195.15625 C 96.855469 195.628906 97.070312 195.738281 97.070312 195.410156 C 97.070312 195.273438 97.175781 195.226562 97.417969 195.253906 C 97.742188 195.285156 97.769531 195.253906 97.804688 194.761719 C 97.835938 194.347656 97.78125 194.179688 97.558594 193.972656 C 97.210938 193.648438 97.101562 193.648438 96.660156 193.976562 M 93.472656 195.652344 L 93.097656 195.953125 L 93.335938 196.480469 C 93.574219 197.003906 93.582031 197.011719 94.089844 196.925781 C 94.789062 196.808594 94.792969 196.804688 94.792969 196.171875 C 94.792969 195.75 94.734375 195.582031 94.550781 195.484375 C 94.171875 195.28125 93.878906 195.328125 93.472656 195.652344 M 109.421875 208.757812 C 109.28125 210.125 109.246094 327.59375 109.390625 327.734375 C 109.4375 327.785156 141.253906 327.785156 141.265625 327.734375 C 141.269531 327.71875 141.257812 300.773438 141.234375 267.851562 L 141.195312 208 L 109.5 208 Z M 109.421875 208.757812 " fill-opacity="1" fill-rule="evenodd"/></g><path fill="#0e263f" d="M 306.726562 293.824219 C 292.96875 298.578125 288.625 315.613281 298.414062 326.449219 C 305.636719 334.441406 320.3125 335.359375 328.453125 328.324219 L 330.90625 326.199219 L 327.839844 323.375 L 324.773438 320.546875 L 323.347656 321.886719 C 318.125 326.792969 309.253906 326.035156 304.882812 320.304688 C 303.1875 318.078125 303 317.339844 303 312.835938 C 303 308.332031 303.1875 307.589844 304.882812 305.363281 C 309.234375 299.664062 318.125 298.875 323.292969 303.734375 L 324.667969 305.023438 L 330.941406 299.5 L 328.46875 297.359375 C 323.167969 292.777344 314.050781 291.292969 306.726562 293.824219 M 47.949219 312.835938 L 47.949219 332.429688 L 76.6875 332.429688 L 76.6875 324.589844 L 57.089844 324.589844 L 57.089844 293.242188 L 47.949219 293.242188 Z M 99.488281 296.160156 C 98.761719 297.796875 94.832031 306.628906 90.757812 315.78125 L 83.339844 332.429688 L 92.820312 332.429688 L 94.621094 328.183594 L 96.425781 323.9375 L 114.363281 323.9375 L 117.558594 332.101562 L 122.554688 332.292969 L 127.546875 332.484375 L 118.847656 313.023438 L 110.144531 293.566406 L 105.476562 293.375 L 100.804688 293.183594 Z M 138.082031 312.835938 L 138.082031 332.429688 L 146.542969 332.429688 L 146.71875 321.164062 L 146.898438 309.894531 L 152.484375 319.039062 C 157.917969 327.9375 158.128906 328.183594 160.3125 328.183594 C 162.507812 328.183594 162.671875 327.984375 168.117188 318.75 L 173.679688 309.3125 L 173.855469 320.871094 L 174.035156 332.429688 L 182.496094 332.429688 L 182.496094 293.242188 L 174.71875 293.242188 L 167.761719 304.996094 C 163.9375 311.464844 160.617188 316.753906 160.382812 316.753906 C 160.148438 316.753906 156.78125 311.464844 152.902344 304.996094 L 145.851562 293.242188 L 138.082031 293.242188 Z M 198.171875 312.835938 L 198.171875 332.527344 L 210.742188 332.316406 C 221.875 332.125 223.65625 331.945312 226.289062 330.726562 C 230.472656 328.789062 233.890625 325.585938 235.90625 321.710938 C 237.378906 318.878906 237.632812 317.566406 237.632812 312.835938 C 237.632812 308.105469 237.378906 306.789062 235.90625 303.957031 C 233.890625 300.082031 230.472656 296.878906 226.289062 294.941406 C 223.65625 293.722656 221.875 293.542969 210.742188 293.355469 L 198.171875 293.140625 Z M 251.074219 312.835938 L 251.074219 332.429688 L 281.773438 332.429688 L 281.773438 325.246094 L 260.21875 325.246094 L 260.21875 316.101562 L 278.507812 316.101562 L 278.507812 308.914062 L 260.21875 308.914062 L 260.21875 300.425781 L 281.121094 300.425781 L 281.121094 293.242188 L 251.074219 293.242188 Z M 207.316406 312.835938 L 207.316406 324.707031 L 214.453125 324.484375 C 222.339844 324.242188 223.863281 323.609375 226.746094 319.371094 C 227.910156 317.664062 228.214844 316.300781 228.214844 312.835938 C 228.214844 309.371094 227.910156 308.003906 226.746094 306.296875 C 223.863281 302.0625 222.339844 301.425781 214.453125 301.183594 L 207.316406 300.960938 Z M 102.546875 309.078125 C 101.605469 311.363281 100.667969 313.648438 99.734375 315.9375 C 99.488281 316.554688 100.847656 316.753906 105.308594 316.753906 L 111.214844 316.753906 L 108.628906 310.402344 C 107.210938 306.910156 105.816406 303.824219 105.539062 303.542969 C 105.257812 303.261719 103.910156 305.753906 102.546875 309.078125 " fill-opacity="1" fill-rule="evenodd"/><g clip-path="url(#8c1aee963f)"><g clip-path="url(#7014cb3a68)"><path fill="#243d5a" d="M 69.992188 189.597656 L 94.054688 189.597656 L 94.054688 213.660156 L 69.992188 213.660156 Z M 69.992188 189.597656 " fill-opacity="1" fill-rule="nonzero"/></g></g><g clip-path="url(#da8009beab)"><g clip-path="url(#0cfa7d57eb)"><path fill="#243d5a" d="M 113.179688 172.335938 L 137.242188 172.335938 L 137.242188 196.398438 L 113.179688 196.398438 Z M 113.179688 172.335938 " fill-opacity="1" fill-rule="nonzero"/></g></g><g clip-path="url(#42a68181ac)"><g clip-path="url(#a820681978)"><path fill="#243d5a" d="M 153.476562 126.773438 L 177.542969 126.773438 L 177.542969 150.835938 L 153.476562 150.835938 Z M 153.476562 126.773438 " fill-opacity="1" fill-rule="nonzero"/></g></g><g clip-path="url(#1a4a84a7ff)"><g clip-path="url(#358baea9da)"><path fill="#243d5a" d="M 197.242188 61.1875 L 221.304688 61.1875 L 221.304688 85.253906 L 197.242188 85.253906 Z M 197.242188 61.1875 " fill-opacity="1" fill-rule="nonzero"/></g></g><g clip-path="url(#c10c43e2ec)"><g clip-path="url(#aba5fa8226)"><path fill="#243d5a" d="M 240.042969 103.414062 L 264.109375 103.414062 L 264.109375 127.476562 L 240.042969 127.476562 Z M 240.042969 103.414062 " fill-opacity="1" fill-rule="nonzero"/></g></g><g clip-path="url(#4f5094d428)"><g clip-path="url(#8f1e27d69d)"><path fill="#243d5a" d="M 283.039062 31.863281 L 307.101562 31.863281 L 307.101562 55.925781 L 283.039062 55.925781 Z M 283.039062 31.863281 " fill-opacity="1" fill-rule="nonzero"/></g></g><g clip-path="url(#bab9227ef9)"><path fill="#243d5a" d="M 56.960938 157.257812 L 56.960938 268.761719 L 43.816406 268.761719 L 43.816406 157.257812 Z M 56.960938 157.257812 " fill-opacity="1" fill-rule="nonzero"/></g><g clip-path="url(#70cefcc2a9)"><path fill="#243d5a" d="M 333.445312 157.257812 L 333.445312 268.761719 L 320.304688 268.761719 L 320.304688 157.257812 Z M 333.445312 157.257812 " fill-opacity="1" fill-rule="nonzero"/></g></svg>